<?xml version="1.0" encoding="iso-8859-1"?>
<!-- Generator: Adobe Illustrator 22.0.1, SVG Export Plug-In . SVG Version: 6.00 Build 0)  -->
<svg xmlns="http://www.w3.org/2000/svg" xmlns:xlink="http://www.w3.org/1999/xlink" version="1.1" id="Layer_1" x="0px" y="0px" viewBox="0 0 30 30" style="enable-background:new 0 0 30 30;" xml:space="preserve" width="50px" height="50px">
<circle cx="4" cy="26" r="1"
fill="#000000"/>
<path d="M24,11l2.414-2.414c0.781-0.781,0.781-2.047,0-2.828l-2.172-2.172c-0.781-0.781-2.047-0.781-2.828,0L19,6L24,11z"/>
<path d="M17,8L5.26,19.74c0,0,0.918-0.082,1.26,0.26c0.342,0.342,0.06,2.58,0.48,3s2.644,0.124,2.963,0.443  c0.319,0.319,0.297,1.297,0.297,1.297L22,13L17,8z"/>
<polygon points="5.5,24.5 4,23 3.056,25.672 3.465,26.535 "/>
<polygon points="5.5,24.5 7,26 4.328,26.944 3.465,26.535 "/>
</svg>
