<?xml version="1.0" encoding="utf-8"?>
<!-- Svg Vector Icons : http://www.onlinewebfonts.com/icon -->
<!DOCTYPE svg PUBLIC "-//W3C//DTD SVG 1.1//EN" "http://www.w3.org/Graphics/SVG/1.1/DTD/svg11.dtd">
<svg version="1.1" xmlns="http://www.w3.org/2000/svg"
     xmlns:xlink="http://www.w3.org/1999/xlink"
x="0px" y="0px" viewBox="0 0 1000 1000"
     enable-background="new 0 0 0 1000"
     xml:space="preserve" fill="#2196F3">
<g><path d="M499.9,990c-150.3,0-300.6,0-450.8,0c-2.2,0-4.5,0-6.7-0.1c-2.9-0.1-4.2-1.5-4.1-4.7c0.3-14.2,0.9-28.4,3.1-42.3c2.7-16.9,7.1-33.5,13.9-49.4c19.3-45.1,52.5-77.2,93.7-102.2c36.3-21.9,75.8-36.6,114.9-52.3c25.6-10.3,51.4-20.2,74.3-36.1c6.6-4.6,12.1-10.4,17.7-16.2c8.4-8.7,7.7-19.7,8.8-30.4c1.8-18.4,1-36.9,1.2-55.4c0.1-4.4-1.4-7.8-4.1-11.2c-20.5-25.3-33.8-54.3-43.1-85.3c-1-3.2-1.6-6.5-2.5-9.7c-1.1-4-3-7.3-6.5-10c-18.3-14-28-33.5-33.4-55.4c-2.1-8.7-4.2-17.3-4.5-26.3c-0.5-15.7,2.6-30.6,11.2-43.7c4.3-6.5,3.4-12.5,1.9-18.9c-3.9-17.1-6.9-34.2-9-51.6c-2.3-19.6-4.4-39.3-4.1-59c0.4-20,2.4-39.7,6.3-59.3c5.5-27.8,15.4-53.7,31.3-77.1c18.3-26.9,42.7-46.7,72.2-60.1c32.2-14.5,66.1-21.1,101.3-22.6c13.9-0.6,27.7-1,41.3,0.6c33.4,4,65.2,13,89.8,38.1c4.4,4.5,10.1,4.6,15.3,6.1c48.7,13.6,78.3,45.9,92.9,93.5c8,26.2,10.4,53,9.7,80.1c-0.5,18.9-1.9,37.9-4.9,56.7c-3.4,21.4-7.9,42.4-13.6,63.2c-0.8,2.9,0,5.4,1.6,7.9c12.9,20.4,14.8,42.4,9.7,65.6c-2.8,12.7-6.7,24.8-12.8,36.2c-5.8,10.7-13.4,19.7-23.1,26.9c-2.8,2.1-4.3,4.5-5.2,8.1c-8.8,35.1-22.7,67.8-45.2,96.5c-2.5,3.3-3.8,6.6-3.8,10.8c-0.3,23.5-0.1,47,2.4,70.4c1,9.7,7.8,16.4,14.5,22.6c15.4,14.6,34.1,24,53.5,32.1c32.2,13.5,64.7,26.2,96.7,40c38.8,16.8,74.9,38,104.3,69.1c25.3,26.8,41.5,58.4,49.4,94.5c3.8,17.4,3.9,35.1,6.2,52.7c0.8,6.6-0.6,7.7-7.5,7.7c-43.3,0-86.6,0-129.9,0C716,990,608,990,499.9,990z M500.1,940.7c132.5,0,265.1,0,397.6,0c2.1,0,4.1,0,6.2,0c2.7,0,3.5-1.1,2.9-3.9c-5.5-26-17.4-48.6-35.3-68.2c-17.6-19.1-39.1-32.8-61.9-44.6c-35.7-18.5-73.7-31.3-110.6-47c-24.6-10.4-48.8-21.5-70.1-38.1c-18-14.1-32.4-30.9-39.7-52.9c-3.1-9.4-1.4-19.2-2.4-28.9c-2.6-27-0.8-54.1-1.2-81.1c-0.1-5.1,1.9-8.4,6.6-10.6c5-2.4,10-4.9,13.4-9.8c19.8-28.2,29.9-59.9,33.6-93.7c1.4-13.1,0.7-13.2,13.6-14.2c12.5-1,17-4.1,20-14.1c3.4-11.3,4.7-22.9,5.9-34.6c1-10.4-2.1-18.3-12.2-22.6c-1.5-0.7-2.9-1.7-4.4-2.4c-5.3-2.2-5.9-6-4.2-10.9c4.3-12.3,8-24.8,11.5-37.4c7.5-26.6,12.5-53.7,14.4-81.2c1.9-25.8,1.2-51.8-6.2-77.1c-13.5-46-43.8-63.8-81.6-68.8c-6.2-0.8-9.9-2.9-12.5-8.3c-3.6-7.3-8.9-13.1-15.9-17.6c-12.5-8-26.6-11-40.8-12.2c-14.8-1.3-29.7-1.4-44.7-0.6c-22.1,1.2-43.6,4.6-64.6,11.4c-51.7,16.8-82.7,52.4-93.5,105.2c-4.8,23.4-6.3,47.2-3.9,71.2c2,20.8,4.4,41.5,8.4,61.9c3.4,17.5,7.5,34.9,12.4,52.1c2.3,8.1,1.9,9-5.4,13.4c-2.4,1.4-4.7,3.1-7.1,4.5c-4.9,3-6.9,7.2-7.2,13c-0.5,13.2,2.3,25.9,5.1,38.6c2.1,9.3,6.9,16.1,17.7,16.1c2.8,0,5.6,0.5,8.4,0.4c4.5-0.2,6.6,1.3,7.3,6.2c0.9,6.8,1.3,13.8,2.4,20.5c4.3,25.4,13.3,49.3,26.4,71.5c4.7,7.9,10.1,15.4,19.2,18.8c6.2,2.4,7.9,6.8,7.8,13.2c-0.6,30,0,60-1.7,90.1c-0.9,15.3-5.1,28.4-13.2,40.7c-13.7,20.9-33.1,35.1-54.5,47.1c-33.5,18.8-69.8,31.1-105.2,45.6c-29.7,12.1-59.1,25.1-85.5,43.8c-29.9,21.2-51.4,48.4-60.7,84.5c-2.9,11.1-3,11,8.7,11C235.4,940.7,367.7,940.7,500.1,940.7z"/></g>
</svg>