<?xml version="1.0" encoding="iso-8859-1"?>
<!-- Generator: Adobe Illustrator 19.2.1, SVG Export Plug-In . SVG Version: 6.00 Build 0)  -->
<svg xmlns="http://www.w3.org/2000/svg"
     xmlns:xlink="http://www.w3.org/1999/xlink"
     version="1.1" id="Layer_1" x="0px" y="0px"
     viewBox="0 0 50 50"
     style="enable-background:new 0 0 50 50;"
     xml:space="preserve" width="50px" height="50px"
fill="#000000">
<path d="M25,1C16.178,1,9,8.178,9,17c0,8.498,14.558,29.671,15.177,30.568C24.364,47.839,24.671,48,25,48s0.636-0.161,0.823-0.432  C26.442,46.671,41,25.498,41,17C41,8.178,33.822,1,25,1z M25,25c-4.418,0-8-3.582-8-8s3.582-8,8-8s8,3.582,8,8S29.418,25,25,25z"/>
<path d="M27.5,16c-0.828,0-1.5-0.672-1.5-1.5c0-0.479,0.228-0.9,0.577-1.175C26.093,13.117,25.561,13,25,13c-2.209,0-4,1.791-4,4  c0,2.209,1.791,4,4,4s4-1.791,4-4c0-0.561-0.117-1.093-0.325-1.577C28.4,15.772,27.979,16,27.5,16z"/>
</svg>
